<svg width="46" height="46" viewBox="0 0 46 46" fill="none" xmlns="http://www.w3.org/2000/svg">
<path d="M22.999 10.0625C22.999 7.68077 24.9298 5.75 27.3115 5.75V5.75C29.6933 5.75 31.624 7.68077 31.624 10.0625V18.2083C31.624 20.8547 29.4787 23 26.8324 23H22.999V10.0625Z" stroke="white" stroke-opacity="0.92" stroke-width="2.68333" stroke-linejoin="round"/>
<path d="M14.375 27.7917C14.375 25.1453 16.5203 23 19.1667 23H23V35.9375C23 38.3192 21.0692 40.25 18.6875 40.25V40.25C16.3058 40.25 14.375 38.3192 14.375 35.9375V27.7917Z" stroke="white" stroke-opacity="0.92" stroke-width="2.68333" stroke-linejoin="round"/>
<path d="M5.75 18.6875C5.75 16.3058 7.68077 14.375 10.0625 14.375H18.2083C20.8547 14.375 23 16.5203 23 19.1667V23H10.0625C7.68077 23 5.75 21.0692 5.75 18.6875V18.6875Z" stroke="white" stroke-opacity="0.92" stroke-width="2.68333" stroke-linejoin="round"/>
<path d="M22.999 23H35.9365C38.3183 23 40.249 24.9308 40.249 27.3125V27.3125C40.249 29.6942 38.3183 31.625 35.9365 31.625H27.7907C25.1443 31.625 22.999 29.4797 22.999 26.8333V23Z" stroke="white" stroke-opacity="0.92" stroke-width="2.68333" stroke-linejoin="round"/>
<path d="M31.625 23V18.6875C31.625 16.3058 33.5558 14.375 35.9375 14.375C38.3192 14.375 40.25 16.3058 40.25 18.6875C40.25 21.0692 38.3192 23 35.9375 23H31.625Z" stroke="white" stroke-opacity="0.92" stroke-width="2.68333" stroke-linejoin="round"/>
<path d="M23 14.375L18.6875 14.375C16.3058 14.375 14.375 12.4442 14.375 10.0625C14.375 7.68077 16.3058 5.75 18.6875 5.75C21.0692 5.75 23 7.68077 23 10.0625L23 14.375Z" stroke="white" stroke-opacity="0.92" stroke-width="2.68333" stroke-linejoin="round"/>
<path d="M14.375 23L14.375 27.3125C14.375 29.6942 12.4442 31.625 10.0625 31.625C7.68077 31.625 5.75 29.6942 5.75 27.3125C5.75 24.9308 7.68077 23 10.0625 23L14.375 23Z" stroke="white" stroke-opacity="0.92" stroke-width="2.68333" stroke-linejoin="round"/>
<path d="M23 31.625L27.3125 31.625C29.6942 31.625 31.625 33.5558 31.625 35.9375C31.625 38.3192 29.6942 40.25 27.3125 40.25C24.9308 40.25 23 38.3192 23 35.9375L23 31.625Z" stroke="white" stroke-opacity="0.92" stroke-width="2.68333" stroke-linejoin="round"/>
</svg>
