<svg width="46" height="46" viewBox="0 0 46 46" fill="none" xmlns="http://www.w3.org/2000/svg">
<path d="M31.6253 13.4169V14.7586C32.3663 14.7586 32.967 14.1579 32.967 13.4169H31.6253ZM31.6253 5.75024H32.967C32.967 5.00926 32.3663 4.40858 31.6253 4.40858V5.75024ZM18.2087 21.0836V22.4252C18.9496 22.4252 19.5503 21.8246 19.5503 21.0836H18.2087ZM12.459 21.0836V19.7419C11.718 19.7419 11.1173 20.3426 11.1173 21.0836H12.459ZM12.459 28.7502H11.1173C11.1173 29.4912 11.718 30.0919 12.459 30.0919V28.7502ZM18.2087 28.7502H19.5503C19.5503 28.0093 18.9496 27.4086 18.2087 27.4086V28.7502ZM18.2087 40.2502H16.867C16.867 40.9912 17.4677 41.5919 18.2087 41.5919V40.2502ZM25.8753 40.2502V41.5919C26.6163 41.5919 27.217 40.9912 27.217 40.2502H25.8753ZM25.8753 28.7502V27.4086C25.1343 27.4086 24.5337 28.0093 24.5337 28.7502H25.8753ZM30.6673 28.7502V30.0919C31.283 30.0919 31.8196 29.6729 31.9689 29.0756L30.6673 28.7502ZM32.584 21.0836L33.8856 21.409C33.9858 21.0082 33.8957 20.5835 33.6415 20.2579C33.3872 19.9323 32.9971 19.7419 32.584 19.7419V21.0836ZM25.8753 21.0836H24.5337C24.5337 21.8246 25.1343 22.4252 25.8753 22.4252V21.0836ZM26.8337 12.0752C25.5634 12.0752 24.5337 13.105 24.5337 14.3752H27.217C27.217 14.587 27.0454 14.7586 26.8337 14.7586V12.0752ZM31.6253 12.0752H26.8337V14.7586H31.6253V12.0752ZM30.2837 5.75024V13.4169H32.967V5.75024H30.2837ZM26.8337 7.09191H31.6253V4.40858H26.8337V7.09191ZM19.5503 14.3752C19.5503 10.3528 22.8112 7.09191 26.8337 7.09191V4.40858C21.3292 4.40858 16.867 8.8708 16.867 14.3752H19.5503ZM19.5503 21.0836V14.3752H16.867V21.0836H19.5503ZM12.459 22.4252H18.2087V19.7419H12.459V22.4252ZM13.8007 28.7502V21.0836H11.1173V28.7502H13.8007ZM18.2087 27.4086H12.459V30.0919H18.2087V27.4086ZM19.5503 40.2502V28.7502H16.867V40.2502H19.5503ZM25.8753 38.9086H18.2087V41.5919H25.8753V38.9086ZM24.5337 28.7502V40.2502H27.217V28.7502H24.5337ZM30.6673 27.4086H25.8753V30.0919H30.6673V27.4086ZM31.2824 20.7582L29.3657 28.4248L31.9689 29.0756L33.8856 21.409L31.2824 20.7582ZM25.8753 22.4252H32.584V19.7419H25.8753V22.4252ZM24.5337 14.3752V21.0836H27.217V14.3752H24.5337Z" fill="white" fill-opacity="0.92"/>
</svg>
